<svg id="monogram" version="1.1" xmlns="http://www.w3.org/2000/svg" xmlns:xlink="http://www.w3.org/1999/xlink" xml:space="preserve" xmlns:serif="http://www.serif.com/" style="fill-rule:evenodd;clip-rule:evenodd;stroke-linejoin:round;stroke-miterlimit:2;" viewBox="27.98 23.28 164.72 151.14">
  <g id="Artboard1" transform="matrix(0.269136,0,0,0.328413,0,0)">
    <g transform="matrix(2.94607,0,0,2.41432,-907.897,-614.971)">
      <path class="monogram-left" d="M478.617,345.998L478.617,290.098C478.617,286.773 475.922,284.078 472.597,284.078L447.177,284.078C443.852,284.078 441.156,286.773 441.156,290.098L441.156,401.607L382.598,287.352C381.568,285.342 379.499,284.078 377.241,284.078L349.48,284.078C346.155,284.078 343.46,286.773 343.46,290.098L343.46,468.677C343.46,472.002 346.155,474.697 349.48,474.697L374.9,474.697C378.225,474.697 380.92,472.002 380.92,468.677L380.92,357.168L420.075,433.05L404.807,470.536L427.827,433.05L478.617,345.998Z"/>
    </g>
    <g transform="matrix(2.94607,0,0,2.41432,-111.886,-85.4906)">
      <path class="monogram-right" d="M171.122,207.631L171.122,249.36L171.122,249.438L171.124,249.516L171.126,249.593L171.13,249.67C171.13,249.67 171.13,249.685 171.13,249.685C171.164,250.321 171.297,250.93 171.513,251.499L171.539,251.568L171.567,251.636L171.595,251.704L171.624,251.771L171.654,251.838L171.684,251.904L171.715,251.97L171.748,252.036L171.78,252.101L171.814,252.166L171.848,252.23L171.883,252.294L171.919,252.357L171.956,252.42L171.993,252.482L172.031,252.544L172.07,252.605L172.11,252.666L172.15,252.726L172.191,252.786L172.232,252.845L172.275,252.904L172.318,252.962L172.361,253.02L172.406,253.077L172.451,253.134L172.496,253.19L172.543,253.245L172.59,253.3L172.637,253.355L172.686,253.408L172.735,253.461L172.784,253.514L172.834,253.566L172.885,253.617L172.936,253.668L172.988,253.718L173.041,253.768L173.094,253.817L173.148,253.865L173.202,253.913L173.257,253.96L173.313,254.006L173.369,254.052L173.425,254.097L173.482,254.141L173.54,254.185L173.598,254.228L173.657,254.27L173.716,254.312L173.776,254.353L173.836,254.393L173.897,254.432L173.958,254.471L174.02,254.509L174.083,254.546L174.145,254.583L174.209,254.619L174.272,254.654L174.337,254.688L174.401,254.722L174.466,254.755L174.532,254.787L174.598,254.818L174.664,254.849L174.731,254.879L174.799,254.908L174.866,254.936L174.935,254.963L175.003,254.99L175.072,255.015L175.141,255.04L175.211,255.064L175.281,255.088L175.352,255.11L175.423,255.132L175.494,255.152L175.566,255.172L175.637,255.191L175.71,255.209L175.782,255.227L175.855,255.243L175.929,255.258L176.002,255.273L176.076,255.287L176.151,255.299L176.225,255.311L176.3,255.322L176.375,255.332L176.451,255.341L176.526,255.35L176.603,255.357L176.679,255.363L176.755,255.368L176.832,255.373L176.909,255.376L176.987,255.379L177.064,255.38L177.142,255.381L274.987,255.381C278.312,255.381 281.008,252.685 281.008,249.36C281.008,242.375 281.008,230.926 281.008,223.94C281.008,220.616 278.312,217.92 274.987,217.92L208.582,217.92L208.582,157.364L232.776,101.918L208.582,143.596L171.122,207.631Z"/>
    </g>
  </g>
</svg>